<svg width="48" height="48" viewBox="0 0 48 48" fill="none" xmlns="http://www.w3.org/2000/svg">
    <!-- Tether (USDT) Base Icon -->
    <g clip-path="url(#clip0_tether)">
        <path d="M24 48C37.2548 48 48 37.2548 48 24C48 10.7452 37.2548 0 24 0C10.7452 0 0 10.7452 0 24C0 37.2548 10.7452 48 24 48Z" fill="#009393"/>
        <path d="M39.8359 22.6489L34.4656 13.5972C34.2453 13.2252 33.839 13 33.3984 13H14.9671C14.5412 13 14.1447 13.2154 13.9195 13.5679L8.18204 22.6391C7.88342 23.1091 7.95685 23.721 8.36807 24.1126L23.1278 38.2604C23.6075 38.7206 24.3761 38.7206 24.8559 38.2604L39.6352 24.093C40.0317 23.7112 40.1149 23.1189 39.8359 22.6489ZM32.248 25.1651C32.2284 26.0904 29.4625 26.8639 25.7713 27.0548V31.3774H22.2858V27.0548C18.5995 26.8687 15.8336 26.0953 15.8091 25.1651V23.2314C15.8287 22.3062 18.5946 21.5327 22.2858 21.3418V19.5795H17.033V17.0387H31.0192V19.5795H25.7713V21.3418C29.4576 21.5278 32.2235 22.3013 32.248 23.2314V25.1651Z" fill="white"/>
        <path d="M25.7713 24.559C25.2083 24.5883 24.6257 24.603 24.0285 24.603C23.4313 24.603 22.8487 24.5883 22.2857 24.559V22.7134C19.1527 22.8749 16.6805 23.4575 16 24.1967C16.8029 25.0681 20.0926 25.7241 24.0285 25.7241C27.9644 25.7241 31.2542 25.0681 32.057 24.1967C31.3765 23.4575 28.9044 22.8749 25.7713 22.7134V24.559Z" fill="white"/>
    </g>

    <!-- Solana Icon (Bottom-Right) -->
    <g transform="translate(26, 26) scale(0.45)">
        <!-- White Border Circle -->
        <circle cx="24" cy="24" r="28" fill="white"/>
        <!-- Black Background -->
        <circle cx="24" cy="24" r="24" fill="black"/>
        
        <!-- Gradient Definitions for Solana -->
        <defs>
            <linearGradient id="sol_paint0" x1="33.7792" y1="12.7398" x2="20.523" y2="38.1307" gradientUnits="userSpaceOnUse">
                <stop stop-color="#00FFA3"/>
                <stop offset="1" stop-color="#DC1FFF"/>
            </linearGradient>
            <linearGradient id="sol_paint1" x1="27.9828" y1="9.71352" x2="14.7267" y2="35.1044" gradientUnits="userSpaceOnUse">
                <stop stop-color="#00FFA3"/>
                <stop offset="1" stop-color="#DC1FFF"/>
            </linearGradient>
            <linearGradient id="sol_paint2" x1="30.8626" y1="11.2169" x2="17.6064" y2="36.6078" gradientUnits="userSpaceOnUse">
                <stop stop-color="#00FFA3"/>
                <stop offset="1" stop-color="#DC1FFF"/>
            </linearGradient>
        </defs>

        <!-- Solana Paths -->
        <path d="M15.8996 29.3566C16.0445 29.2118 16.2436 29.1273 16.4548 29.1273H35.6089C35.959 29.1273 36.134 29.5497 35.8865 29.7972L32.1028 33.5809C31.958 33.7258 31.7588 33.8102 31.5476 33.8102H12.3935C12.0435 33.8102 11.8685 33.3878 12.1159 33.1404L15.8996 29.3566Z" fill="url(#sol_paint0)"/>
        <path d="M15.8996 15.2293C16.0505 15.0845 16.2496 15 16.4548 15H35.6089C35.959 15 36.134 15.4224 35.8865 15.6699L32.1028 19.4536C31.958 19.5984 31.7588 19.6829 31.5476 19.6829H12.3935C12.0435 19.6829 11.8685 19.2605 12.1159 19.0131L15.8996 15.2293Z" fill="url(#sol_paint1)"/>
        <path d="M32.1028 22.2476C31.958 22.1028 31.7588 22.0183 31.5476 22.0183H12.3935C12.0435 22.0183 11.8685 22.4407 12.1159 22.6882L15.8996 26.4719C16.0445 26.6167 16.2436 26.7012 16.4548 26.7012H35.6089C35.959 26.7012 36.134 26.2788 35.8865 26.0314L32.1028 22.2476Z" fill="url(#sol_paint2)"/>
    </g>

    <defs>
        <clipPath id="clip0_tether">
            <rect width="48" height="48" fill="white"/>
        </clipPath>
    </defs>
</svg>
