<svg width="48" height="48" viewBox="0 0 48 48" fill="none" xmlns="http://www.w3.org/2000/svg">
    <!-- Tether (USDT) Base Icon -->
    <g clip-path="url(#clip0_tether)">
        <path d="M24 48C37.2548 48 48 37.2548 48 24C48 10.7452 37.2548 0 24 0C10.7452 0 0 10.7452 0 24C0 37.2548 10.7452 48 24 48Z" fill="#009393"/>
        <path d="M39.8359 22.6489L34.4656 13.5972C34.2453 13.2252 33.839 13 33.3984 13H14.9671C14.5412 13 14.1447 13.2154 13.9195 13.5679L8.18204 22.6391C7.88342 23.1091 7.95685 23.721 8.36807 24.1126L23.1278 38.2604C23.6075 38.7206 24.3761 38.7206 24.8559 38.2604L39.6352 24.093C40.0317 23.7112 40.1149 23.1189 39.8359 22.6489ZM32.248 25.1651C32.2284 26.0904 29.4625 26.8639 25.7713 27.0548V31.3774H22.2858V27.0548C18.5995 26.8687 15.8336 26.0953 15.8091 25.1651V23.2314C15.8287 22.3062 18.5946 21.5327 22.2858 21.3418V19.5795H17.033V17.0387H31.0192V19.5795H25.7713V21.3418C29.4576 21.5278 32.2235 22.3013 32.248 23.2314V25.1651Z" fill="white"/>
        <path d="M25.7713 24.559C25.2083 24.5883 24.6257 24.603 24.0285 24.603C23.4313 24.603 22.8487 24.5883 22.2857 24.559V22.7134C19.1527 22.8749 16.6805 23.4575 16 24.1967C16.8029 25.0681 20.0926 25.7241 24.0285 25.7241C27.9644 25.7241 31.2542 25.0681 32.057 24.1967C31.3765 23.4575 28.9044 22.8749 25.7713 22.7134V24.559Z" fill="white"/>
    </g>

    <!-- ETH Icon (Bottom-Right) -->
    <g transform="translate(26, 26) scale(0.45)">
        <!-- White Border Circle -->
        <circle cx="24" cy="24" r="28" fill="white"/>
        <!-- Black Background -->
        <path d="M0 24C0 10.7452 10.7452 0 24 0V0C37.2548 0 48 10.7452 48 24V24C48 37.2548 37.2548 48 24 48V48C10.7452 48 0 37.2548 0 24V24Z" fill="black"/>
        <!-- ETH Logo Path -->
        <path fill-rule="evenodd" clip-rule="evenodd" d="M17 24.1308L24.1543 12L31.3087 24.1308L24.1543 27.6448L17 24.1308ZM24.1543 35.9881L17 25.1514L24.1543 29.0968L31.3087 25.1514L24.1543 35.9881Z" fill="white"/>
    </g>

    <defs>
        <clipPath id="clip0_tether">
            <rect width="48" height="48" fill="white"/>
        </clipPath>
    </defs>
</svg>
